PathFileType	4	(X/Y/Z)	D:\Share\Shared_Data\Ergonomics\Sit To Stand Pertubation\S0\Perturbed STS.trc
DataRate	CameraRate	NumFrames	NumMarkers	Units	OrigDataRate	OrigDataStartFrame	OrigNumFrames	
100	100	11	18	m	100	17436	251
Frame#	Time	R_Heel			R_ASIS			R_Pelvis			V_Sacral			L_Pelvis			L_ASIS			Clavical			R_Acromium			L_Acromium			Sternum			Torso			R_Thigh_Med			R_Thigh_Lat			R_Thigh			R_Shank_Med			R_Shank_Lat			R_Shank			R_Toe			
		X1	Y1	Z1	X2	Y2	Z2	X3	Y3	Z3	X4	Y4	Z4	X5	Y5	Z5	X6	Y6	Z6	X7	Y7	Z7	X8	Y8	Z8	X9	Y9	Z9	X10	Y10	Z10	X11	Y11	Z11	X12	Y12	Z12	X13	Y13	Z13	X14	Y14	Z14	X15	Y15	Z15	X16	Y16	Z16	X17	Y17	Z17	X18	Y18	Z18	

17436	130.7	0.15525488	0.047966568	0.11338293	-0.027591887	0.73990527	0.14627806	-0.15655295	0.71415747	0.18914607	-0.26761465	0.67281189	-0.041932617	-0.1232419	0.69968365	-0.21624323	-0.0057387738	0.73152594	-0.17029515	-0.0043888588	1.1084559	-0.028009384	-0.08368145	1.1752833	0.11132604	-0.088092049	1.1763748	-0.17961996	0.022587086	1.0138565	-0.043540497	-8.8305414e-05	1.058838	-0.14892987	0.32374945	0.49048801	0.054239117	0.30474289	0.50596182	0.18834779	0.22897688	0.64169458	0.10651299	0.25712793	0.10457014	0.074198242	0.1975336	0.089306717	0.16197496	0.26323013	0.30837686	0.19234735	0.37944824	0.047644356	0.11113781
17437	130.71	0.15518582	0.047912052	0.11344397	-0.027534109	0.73985217	0.14627312	-0.15649699	0.71420123	0.1891454	-0.26761569	0.67290088	-0.041923321	-0.12323734	0.69975165	-0.21625305	-0.0056981745	0.73151526	-0.17031192	-0.0037490973	1.1083043	-0.02800696	-0.082933441	1.1752594	0.11134211	-0.087351578	1.1763354	-0.17961339	0.023072433	1.0136601	-0.043537212	0.00047182223	1.0586692	-0.14892563	0.32365842	0.49045245	0.054283936	0.30471539	0.50595306	0.18839062	0.22896353	0.64167535	0.10652198	0.25704947	0.10457781	0.074234131	0.1974857	0.089265816	0.16204202	0.26320981	0.30835394	0.19240424	0.37938672	0.0477061	0.11108569
17438	130.72	0.1551179	0.047860886	0.11349599	-0.027469568	0.7398006	0.14626981	-0.15643517	0.71424945	0.18914328	-0.26761682	0.67300061	-0.041912457	-0.12322693	0.6998255	-0.21626297	-0.0056488781	0.73149847	-0.17032649	-0.0030413754	1.1081331	-0.028003244	-0.0821054	1.1752328	0.11135594	-0.086538254	1.1762903	-0.17960558	0.023610588	1.0134423	-0.04353566	0.0010893166	1.0584818	-0.14892201	0.32356763	0.49042609	0.054330666	0.30468198	0.50594373	0.18843724	0.22895039	0.64166174	0.10654259	0.25697144	0.10458424	0.074262161	0.19743988	0.089227669	0.16210025	0.26319058	0.30833173	0.19245805	0.37932608	0.047765293	0.11103033
17439	130.73	0.15505161	0.047812168	0.11353832	-0.027396217	0.73975238	0.14626866	-0.15636688	0.71430225	0.18913976	-0.26761691	0.67311212	-0.041900234	-0.12321008	0.69990521	-0.21627261	-0.0055904102	0.73147589	-0.17033839	-0.0022619338	1.1079406	-0.027997967	-0.081193016	1.175203	0.11136774	-0.085646774	1.1762378	-0.17959673	0.024203888	1.0132001	-0.043535263	0.0017679214	1.058274	-0.1489184	0.32347937	0.49040836	0.054379654	0.30464194	0.50593329	0.18848769	0.2289377	0.64165326	0.10657454	0.2568941	0.10458904	0.074283432	0.19739557	0.089192307	0.16214891	0.2631709	0.30831003	0.19250853	0.37926639	0.047821663	0.11097519
17440	130.74	0.15498741	0.047764935	0.11357127	-0.027310972	0.73970984	0.14627019	-0.15629147	0.71435968	0.18913528	-0.26761469	0.67323602	-0.041886726	-0.12318653	0.69999078	-0.21628157	-0.0055223379	0.73144745	-0.17034738	-0.0014074671	1.1077249	-0.027991482	-0.080192108	1.1751693	0.11137785	-0.084671959	1.1761774	-0.17958705	0.02485331	1.0129307	-0.043535213	0.0025106738	1.058043	-0.14891406	0.32339551	0.49039758	0.054431141	0.30459537	0.50592102	0.18854179	0.22892578	0.64164795	0.10661618	0.2568176	0.10459178	0.074299156	0.19735219	0.089159103	0.16218829	0.26314914	0.30828836	0.19255583	0.37920773	0.04787513	0.11092353
17441	130.75	0.1549258	0.047718575	0.11359621	-0.027210508	0.73967444	0.14627473	-0.15620802	0.71442181	0.18913069	-0.26760959	0.67337262	-0.041871742	-0.12315632	0.70008215	-0.21628943	-0.0054439301	0.73141351	-0.17035345	-0.00047498804	1.1074846	-0.027984692	-0.079098808	1.1751305	0.1113865	-0.083609146	1.1761088	-0.17957698	0.025559237	1.0126308	-0.043534954	0.0033200333	1.057787	-0.14890852	0.32331781	0.49039114	0.054485203	0.30454315	0.50590576	0.18859892	0.22891536	0.64164386	0.10666553	0.25674185	0.10459218	0.074310783	0.19730936	0.089127121	0.16221977	0.26312338	0.30826645	0.1926003	0.37915009	0.047925438	0.11087784
17442	130.76	0.1548674	0.047672955	0.11361539	-0.027091955	0.73964545	0.14628261	-0.15611555	0.71448859	0.18912698	-0.26760162	0.67352191	-0.041854641	-0.12311956	0.7001792	-0.21629553	-0.0053538117	0.73137415	-0.17035695	0.00053851998	1.1072178	-0.027978699	-0.077909676	1.1750841	0.11139372	-0.082454109	1.1760315	-0.17956712	0.026321999	1.0122985	-0.043534214	0.0041981874	1.0575039	-0.14890163	0.3232471	0.49038596	0.054541649	0.30448633	0.50588663	0.18865808	0.22890726	0.6416394	0.10672036	0.25666708	0.10459025	0.074319901	0.19726721	0.089095741	0.16224562	0.26309238	0.30824454	0.19264252	0.37909387	0.047972256	0.1108396
17443	130.77	0.15481299	0.047628494	0.11363136	-0.026952831	0.7396203	0.14629419	-0.15601302	0.71456012	0.18912517	-0.26759021	0.67368365	-0.041834705	-0.12307634	0.70028186	-0.2162993	-0.0052497344	0.7313299	-0.17035828	0.0016363382	1.1069231	-0.027974321	-0.076621719	1.1750282	0.11139912	-0.081202965	1.1759454	-0.17955815	0.02714258	1.0119321	-0.043532829	0.005147089	1.0571931	-0.14889359	0.32318329	0.49037909	0.054599915	0.30442651	0.50586331	0.18871819	0.22890207	0.64163318	0.10677831	0.25659378	0.10458642	0.074328171	0.19722623	0.089064812	0.16226822	0.26305591	0.30822311	0.19268309	0.37904001	0.048015285	0.11080945
17444	130.78	0.15476338	0.047586021	0.11364632	-0.026790352	0.73959772	0.14630998	-0.15589938	0.71463647	0.18912614	-0.26757352	0.67385785	-0.041811443	-0.12302645	0.70038977	-0.21630035	-0.0051286807	0.7312821	-0.17035797	0.002822083	1.1065999	-0.027971609	-0.075232307	1.1749603	0.11140221	-0.079852089	1.1758502	-0.1795504	0.028023441	1.0115314	-0.043530716	0.0061685777	1.0568536	-0.14888478	0.32312479	0.49036853	0.054659092	0.30436554	0.50583649	0.18877814	0.22889999	0.64162408	0.10683711	0.25652304	0.10458163	0.074337151	0.19718718	0.089034729	0.16228941	0.2630152	0.30820297	0.19272237	0.37898944	0.048054588	0.1107874
17445	130.79	0.15471889	0.047546238	0.11366153	-0.026601648	0.73957758	0.14633051	-0.15577397	0.71471796	0.1891306	-0.26754941	0.67404572	-0.04178458	-0.1229694	0.70050275	-0.21629874	-0.0049872956	0.73123218	-0.17035661	0.0040995522	1.1062479	-0.027969812	-0.073739365	1.174879	0.11140302	-0.07839801	1.1757456	-0.17954384	0.02896806	1.0110959	-0.043528023	0.007264698	1.0564856	-0.14887587	0.32306927	0.49035379	0.05471806	0.30430533	0.50580798	0.18883707	0.22890096	0.64161212	0.10689478	0.25645602	0.10457694	0.074347862	0.19715068	0.089006042	0.16230991	0.26297198	0.30818475	0.1927603	0.37894278	0.048090813	0.11077254
17446	130.8	0.15467929	0.047509205	0.11367721	-0.026385534	0.73955896	0.14635571	-0.15563657	0.71480505	0.1891387	-0.2675162	0.6742489	-0.041753857	-0.12290447	0.70062085	-0.2162951	-0.0048224254	0.73118158	-0.17035466	0.0054721656	1.105868	-0.027967918	-0.072140984	1.1747837	0.11140227	-0.076837631	1.1756309	-0.17953798	0.029979887	1.0106263	-0.043524979	0.0084377546	1.0560891	-0.14886742	0.3230141	0.49033539	0.054775562	0.3042471	0.50577982	0.18889413	0.22890445	0.64159747	0.10694987	0.25639316	0.10457316	0.074360413	0.19711671	0.088979317	0.16232933	0.26292783	0.30816867	0.19279669	0.37890015	0.048125187	0.11076274
